# xmcd CD database file
#
# Track frame offsets:
#	150
#	21199
#	42079
#	58994
#	76167
#	89982
#	106167
#	124529
#	144544
#	160595
#	183687
#
# Disc length: 2667 seconds
#
# Revision: 19
# Processed by: cddbd v1.5.2PL0 Copyright (c) Steve Scherf et al.
# Submitted via: CDex 1.51
#
DISCID=900a690b
DTITLE=Reba McEntire - Duets
DYEAR=2007
DGENRE=Country
TTITLE0=Reba McEntire and LeAnn Rimes - When You Love Someone Like That
TTITLE1=Reba McEntire and Ronnie Dunn - Does The Wind Still Blow In Oklahoma?
TTITLE2=Reba McEntire and Kelly Clarkson - Because Of You
TTITLE3=Reba McEntire and Rascal Flatts - Faith In Love
TTITLE4=Reba McEntire and Trisha Yearwood - She Can't Save Him
TTITLE5=Reba McEntire and Carole King - Everyday People
TTITLE6=Reba McEntire and Kenny Chesney - Every Other Weekend
TTITLE7=Reba McEntire and Vince Gill - These Broken Hearts
TTITLE8=Reba McEntire and Faith Hill - Sleeping With The Telephone
TTITLE9=Reba McEntire and Justin Timberlake - The Only Promise That Remains
TTITLE10=Reba McEntire and Don Henley - Break Each Other's Hearts Again
EXTD=YEAR: 2007
EXTT0=
EXTT1=
EXTT2=
EXTT3=
EXTT4=
EXTT5=
EXTT6=
EXTT7=
EXTT8=
EXTT9=
EXTT10=
PLAYORDER=
